<?xml version="1.0" encoding="utf-8"?>
<!-- Generator: Adobe Illustrator 17.1.0, SVG Export Plug-In . SVG Version: 6.00 Build 0)  -->
<!DOCTYPE svg PUBLIC "-//W3C//DTD SVG 1.1//EN" "http://www.w3.org/Graphics/SVG/1.1/DTD/svg11.dtd">
<svg version="1.1" id="Layer_1" xmlns="http://www.w3.org/2000/svg" xmlns:xlink="http://www.w3.org/1999/xlink" x="0px" y="0px"
	 viewBox="-41.2 148.8 496.3 496.3" enable-background="new -41.2 148.8 496.3 496.3" xml:space="preserve">
<path fill="#F7F3EC" stroke="#F7F3EC" stroke-width="4" stroke-miterlimit="10" d="M-39.2,405.8H61.8v201.5
	c0,19.8,16.3,35.9,36.3,35.9h217.8c20,0,36.3-16.1,36.3-35.9V405.8h100.9V150.8H-39.2V405.8z M81.5,607.2v-287h135v303.2H98.1
	C88.9,623.5,81.5,616.2,81.5,607.2z M332.5,607.2c0,8.9-7.5,16.2-16.6,16.2h-36.7V320.2h53.3V607.2z M-19.5,170.5h452.9v215.5h-81.2
	v-65.8h37.2v-19.7h-37.2H61.8H24.6v19.7h37.2v65.8h-81.2V170.5z"/>
<path fill="#F7F3EC" stroke="#F7F3EC" stroke-width="4" stroke-miterlimit="10" d="M104.6,471.6V585h68.9V471.6H104.6z M153.8,565.3
	h-29.5v-74h29.5V565.3z"/>
</svg>
