<?xml version="1.0" encoding="utf-8"?>
<!-- Generator: Adobe Illustrator 17.1.0, SVG Export Plug-In . SVG Version: 6.00 Build 0)  -->
<!DOCTYPE svg PUBLIC "-//W3C//DTD SVG 1.1//EN" "http://www.w3.org/Graphics/SVG/1.1/DTD/svg11.dtd">
<svg version="1.1" id="Layer_1" xmlns="http://www.w3.org/2000/svg" xmlns:xlink="http://www.w3.org/1999/xlink" x="0px" y="0px"
	 viewBox="0 0 182.5 182.5" enable-background="new 0 0 182.5 182.5" xml:space="preserve">
<path fill="#F8F3EC" d="M176.5,56.8h-50.8V6c0-3.3-2.7-6-6-6H62.8c-3.3,0-6,2.7-6,6v50.8H6c-3.3,0-6,2.7-6,6v56.8c0,3.3,2.7,6,6,6
	h50.8v50.8c0,3.3,2.7,6,6,6h56.8c3.3,0,6-2.7,6-6v-50.8h50.8c3.3,0,6-2.7,6-6V62.8C182.5,59.5,179.8,56.8,176.5,56.8 M170.5,113.6
	h-50.8c-3.3,0-6,2.7-6,6v50.8H68.8v-50.8c0-3.3-2.7-6-6-6H12V68.8h50.8c3.3,0,6-2.7,6-6V12h44.8v50.8c0,3.3,2.7,6,6,6h50.8V113.6z"
	/>
<rect fill="none" width="182.5" height="182.5"/>
</svg>
