<?xml version="1.0" encoding="utf-8"?>
<!-- Generator: Adobe Illustrator 17.1.0, SVG Export Plug-In . SVG Version: 6.00 Build 0)  -->
<!DOCTYPE svg PUBLIC "-//W3C//DTD SVG 1.1//EN" "http://www.w3.org/Graphics/SVG/1.1/DTD/svg11.dtd">
<svg version="1.1" id="Layer_1" xmlns="http://www.w3.org/2000/svg" xmlns:xlink="http://www.w3.org/1999/xlink" x="0px" y="0px"
	 viewBox="0 0 308.4 388.4" enable-background="new 0 0 308.4 388.4" xml:space="preserve">
<path fill="#F8F3EC" d="M297.7,101H61.1c-21.9,0-39.8-17.8-39.8-39.8c0-21.9,17.8-39.8,39.8-39.8h236.6c5.9,0,10.6-4.8,10.6-10.6
	c0-5.9-4.8-10.6-10.6-10.6H61.1C27.4,0,0,27.4,0,61.1v266.2c0,33.7,27.4,61.1,61.1,61.1h236.6c5.9,0,10.6-4.8,10.6-10.6V111.6
	C308.3,105.8,303.6,101,297.7,101 M287,367.1H61.1c-21.9,0-39.8-17.8-39.8-39.8V107.5c10.7,9.2,24.6,14.8,39.8,14.8H287V367.1z"/>
<path fill="#F8F3EC" d="M64.5,51.4c-5.9,0-10.6,4.8-10.6,10.6c0,5.8,4.8,10.6,10.6,10.6h199.8c5.9,0,10.6-4.8,10.6-10.6
	c0-5.8-4.8-10.6-10.6-10.6H64.5z"/>
<path fill="#F8F3EC" d="M101.9,320.6c1.2,0.4,2.4,0.6,3.6,0.6c4.4,0,8.5-2.7,10-7l13-36.2h49.9c0.4,0,0.9,0,1.3-0.1l13,36.3
	c1.5,4.3,5.7,7,10,7c1.2,0,2.4-0.2,3.6-0.6c5.5-2,8.4-8.1,6.4-13.6L164.2,171c-0.1-0.3-0.2-0.6-0.4-1l-0.2-0.5l-0.2-0.5
	c-0.1-0.2-0.2-0.3-0.3-0.6c-0.1-0.1-0.2-0.2-0.2-0.3c-0.1-0.2-0.2-0.3-0.4-0.5c-0.1-0.1-0.2-0.2-0.3-0.3c-0.1-0.2-0.2-0.2-0.4-0.4
	l-0.4-0.4c-0.1-0.1-0.2-0.2-0.3-0.3c-0.2-0.2-0.3-0.2-0.5-0.4c-0.1-0.1-0.2-0.2-0.3-0.2c-0.2-0.1-0.3-0.2-0.5-0.3l-0.5-0.2l-0.5-0.2
	c-0.3-0.2-0.6-0.3-1-0.4h-0.1l-1-0.2c-0.2,0-0.2-0.1-0.4-0.1c-0.2-0.1-0.4-0.1-0.6-0.2c-0.2,0-0.3,0-0.5-0.1c-0.2,0-0.4-0.1-0.6-0.1
	h-1c-0.2,0-0.4,0-0.6,0.1c-0.2,0-0.3,0-0.5,0.1c-0.2,0-0.4,0.1-0.6,0.2c-0.2,0-0.2,0.1-0.4,0.1c-0.3,0.1-0.6,0.2-0.9,0.2h-0.1
	c-0.3,0.1-0.6,0.2-1,0.4l-0.5,0.2l-0.5,0.2c-0.2,0.1-0.3,0.2-0.6,0.3c-0.1,0.1-0.2,0.2-0.3,0.2c-0.2,0.2-0.3,0.2-0.5,0.4
	c-0.1,0.1-0.2,0.2-0.3,0.3l-0.8,0.8c-0.1,0.1-0.2,0.2-0.3,0.3c-0.2,0.2-0.2,0.3-0.4,0.5c-0.1,0.1-0.2,0.2-0.2,0.3
	c-0.1,0.2-0.2,0.3-0.3,0.5l-0.2,0.5l-0.2,0.5c-0.2,0.3-0.3,0.6-0.4,1L95.3,306.9C93.5,312.5,96.4,318.6,101.9,320.6 M154.2,206.2
	l18,50.4h-36.1L154.2,206.2z"/>
<rect fill="none" width="308.4" height="388.4"/>
</svg>
