<?xml version="1.0" encoding="utf-8"?>
<!-- Generator: Adobe Illustrator 17.1.0, SVG Export Plug-In . SVG Version: 6.00 Build 0)  -->
<!DOCTYPE svg PUBLIC "-//W3C//DTD SVG 1.1//EN" "http://www.w3.org/Graphics/SVG/1.1/DTD/svg11.dtd">
<svg version="1.1" id="Layer_1" xmlns="http://www.w3.org/2000/svg" xmlns:xlink="http://www.w3.org/1999/xlink" x="0px" y="0px"
	 viewBox="0 0 364.9 315.2" enable-background="new 0 0 364.9 315.2" xml:space="preserve">
<g>
	<path fill="#F3F3F3" stroke="#F8F3EC" stroke-width="4" stroke-miterlimit="10" d="M319,152.8c-2.6-7.9-5.8-15.5-9.7-22.8v-1
		c0-70-57-127-127-127s-127,57-127,127v1c-3.9,7.3-7.1,14.9-9.7,22.8C21.5,153.3,2,173.1,2,197.3c0,24.6,20,44.5,44.5,44.5
		c0.1,0,0.1,0,0.2,0c7.1,17.6,18.9,32.5,34.9,44c25,17.9,59.8,27.3,100.6,27.3c40.9,0,75.7-9.4,100.6-27.3
		c16.1-11.5,27.8-26.4,34.9-44c0.2,0,0.3,0,0.5,0c24.6,0,44.5-20,44.5-44.5C362.9,173,343.2,153.1,319,152.8L319,152.8z
		 M293.1,122.9H237c-0.6-30.5-5.6-59-14.2-81c-3-7.6-6.3-14.2-10-19.7C257.3,35,290.5,75,293.1,122.9L293.1,122.9z M182.3,18
		c8.7,0,18.3,11.1,25.6,29.8c7.9,20.1,12.5,46.6,13.1,75.1h-77.3c0.6-28.5,5.2-55,13.1-75.1C164,29.1,173.6,18,182.3,18L182.3,18z
		 M135.6,138.9h107.4c-15.4,14.1-37.4,22.5-60.7,22.5c-23.2,0-45.2-8.4-60.7-22.5H135.6z M151.8,22.3c-3.6,5.5-7,12.1-10,19.7
		c-8.6,21.9-13.6,50.5-14.2,81H71.4C74.1,75,107.2,35,151.8,22.3L151.8,22.3z M18,197.3c0-14,10.1-25.6,23.3-28.1
		c-1.8,9.2-2.8,18.6-2.8,28.1c0,9.9,1,19.3,3,28.1C28.2,223.1,18,211.4,18,197.3L18,197.3z M273.6,272.9
		c-22.2,15.9-53.8,24.3-91.3,24.3c-37.5,0-69.1-8.4-91.3-24.3c-24.2-17.3-36.4-42.7-36.4-75.6c0-20.3,4.9-40.4,14.1-58.4h31.4
		c18.1,23.8,49.2,38.5,82.2,38.5c33.1,0,64.1-14.7,82.2-38.5h31.4c9.2,17.9,14.1,38,14.1,58.4C310,230.1,297.8,255.5,273.6,272.9
		L273.6,272.9z M323,225.5c2-8.9,3.1-18.3,3.1-28.2c0-9.5-0.9-18.9-2.8-28.1c13.4,2.3,23.6,14,23.6,28.1
		C346.9,211.5,336.5,223.2,323,225.5L323,225.5z M323,225.5"/>
	<path fill="#F3F3F3" stroke="#F8F3EC" stroke-width="4" stroke-miterlimit="10" d="M196.3,249.4c-3.8,3.8-8.7,5.8-14,5.8
		c-5.3,0-10.3-2.1-14-5.8c-3.1-3.1-8.2-3.1-11.3,0c-3.1,3.1-3.1,8.2,0,11.3c6.8,6.8,15.8,10.5,25.3,10.5c9.6,0,18.6-3.7,25.3-10.5
		c3.1-3.1,3.1-8.2,0-11.3C204.5,246.3,199.4,246.3,196.3,249.4L196.3,249.4z M196.3,249.4"/>
	<path fill="#F3F3F3" stroke="#F8F3EC" stroke-width="4" stroke-miterlimit="10" d="M105.9,182c-4.4,0-8,3.6-8,8v24.8
		c0,4.4,3.6,8,8,8c4.4,0,8-3.6,8-8V190C113.9,185.6,110.3,182,105.9,182L105.9,182z M105.9,182"/>
	<path fill="#F3F3F3" stroke="#F8F3EC" stroke-width="4" stroke-miterlimit="10" d="M258.7,182c-4.4,0-8,3.6-8,8v24.8
		c0,4.4,3.6,8,8,8s8-3.6,8-8V190C266.7,185.6,263.1,182,258.7,182L258.7,182z M258.7,182"/>
</g>
</svg>
