<?xml version="1.0" encoding="utf-8"?>
<!-- Generator: Adobe Illustrator 17.1.0, SVG Export Plug-In . SVG Version: 6.00 Build 0)  -->
<!DOCTYPE svg PUBLIC "-//W3C//DTD SVG 1.1//EN" "http://www.w3.org/Graphics/SVG/1.1/DTD/svg11.dtd">
<svg version="1.1" id="Layer_1" xmlns="http://www.w3.org/2000/svg" xmlns:xlink="http://www.w3.org/1999/xlink" x="0px" y="0px"
	 viewBox="0 0 240.8 124.2" enable-background="new 0 0 240.8 124.2" xml:space="preserve">
<path fill="#F8F3EC" d="M236.9,44.5h-13.6V26.2c0-2.1-1.8-3.9-3.9-3.9h-22V3.9c0-2.1-1.8-3.9-3.9-3.9h-25.9c-2.1,0-3.9,1.8-3.9,3.9
	v40.6H76.4V3.9c0-2.1-1.8-3.9-3.9-3.9H46.6c-2.1,0-3.9,1.8-3.9,3.9v18.3h-22c-2.1,0-3.9,1.8-3.9,3.9v18.3H3.9
	c-2.1,0-3.9,1.8-3.9,3.9v26.9c0,2.1,1.8,3.9,3.9,3.9h12.9v19c0,2.1,1.8,3.9,3.9,3.9h22v18.3c0,2.1,1.8,3.9,3.9,3.9h25.9
	c2.1,0,3.9-1.8,3.9-3.9V79.1h87.3v41.2c0,2.1,1.8,3.9,3.9,3.9h25.9c2.1,0,3.9-1.8,3.9-3.9V102h22c2.1,0,3.9-1.8,3.9-3.9v-19h13.6
	c2.1,0,3.9-1.8,3.9-3.9V48.3C240.8,46.2,239,44.5,236.9,44.5 M16.8,71.4h-9V52.3h9V71.4z M42.7,94.3H24.6V30.1h18.1V94.3z
	 M68.6,116.5H50.5V7.8h18.1V116.5z M163.7,71.4H76.4V52.3h87.3V71.4z M189.6,116.5h-18.1V7.8h18.1V116.5z M215.5,94.3h-18.1V30.1
	h18.1V94.3z M233,71.3h-9.7V52.3h9.7V71.3z"/>
<rect y="0" fill="none" width="240.8" height="124.2"/>
</svg>
