<?xml version="1.0" encoding="utf-8"?>
<!-- Generator: Adobe Illustrator 17.1.0, SVG Export Plug-In . SVG Version: 6.00 Build 0)  -->
<!DOCTYPE svg PUBLIC "-//W3C//DTD SVG 1.1//EN" "http://www.w3.org/Graphics/SVG/1.1/DTD/svg11.dtd">
<svg version="1.1" id="Layer_1" xmlns="http://www.w3.org/2000/svg" xmlns:xlink="http://www.w3.org/1999/xlink" x="0px" y="0px"
	 viewBox="0 0 336 393.1" enable-background="new 0 0 336 393.1" xml:space="preserve">
<path fill="#F3F3F3" stroke="#F8F3EC" stroke-width="4" stroke-miterlimit="10" d="M66.4,196.5c-1.5-5.1-6.9-8-11.9-6.5
	c-5.1,1.5-8,6.9-6.5,11.9c1.3,4.2,5,6.9,9.2,6.9c0.9,0,1.8-0.2,2.7-0.4C65.1,206.9,67.9,201.5,66.4,196.5L66.4,196.5z M66.4,196.5"
	/>
<path fill="#F3F3F3" stroke="#F8F3EC" stroke-width="4" stroke-miterlimit="10" d="M45.9,308c-4.5-2.9-10.4-1.6-13.3,2.9
	c-2.9,4.5-1.6,10.4,2.9,13.3c1.6,1,3.4,1.5,5.2,1.5c3.1,0,6.2-1.5,8.1-4.4C51.6,316.8,50.3,310.9,45.9,308L45.9,308z M45.9,308"/>
<path fill="#F3F3F3" stroke="#F8F3EC" stroke-width="4" stroke-miterlimit="10" d="M103.5,196.5c0-5.3-4.3-9.6-9.6-9.6
	c-5.3,0-9.6,4.3-9.6,9.6s4.3,9.6,9.6,9.6C99.2,206.1,103.5,201.8,103.5,196.5L103.5,196.5z M103.5,196.5"/>
<path fill="#F3F3F3" stroke="#F8F3EC" stroke-width="4" stroke-miterlimit="10" d="M11.5,261.9c4.7,0,8.8-3.4,9.5-8.2
	c0.7-5.3-2.9-10.1-8.2-10.9c-5.3-0.7-10.1,2.9-10.8,8.2c-0.7,5.3,3,10.1,8.2,10.8C10.6,261.9,11.1,261.9,11.5,261.9L11.5,261.9z
	 M11.5,261.9"/>
<path fill="#F3F3F3" stroke="#F8F3EC" stroke-width="4" stroke-miterlimit="10" d="M33.9,225.4c3.4-4,3-10.1-1-13.5
	c-4-3.4-10.1-3-13.5,1c-3.4,4-3,10.1,1,13.5c1.8,1.6,4,2.3,6.2,2.3C29.3,228.7,31.9,227.5,33.9,225.4L33.9,225.4z M33.9,225.4"/>
<path fill="#F3F3F3" stroke="#F8F3EC" stroke-width="4" stroke-miterlimit="10" d="M319.1,114.1c1.4,0,2.7-0.3,4-0.9
	c4.8-2.2,6.9-7.9,4.7-12.7c-2.2-4.8-7.9-6.9-12.7-4.7s-7,7.9-4.7,12.7C311.9,112,315.4,114.1,319.1,114.1L319.1,114.1z M319.1,114.1
	"/>
<path fill="#F3F3F3" stroke="#F8F3EC" stroke-width="4" stroke-miterlimit="10" d="M140.6,196.5c0-5.3-4.3-9.6-9.6-9.6
	c-5.3,0-9.6,4.3-9.6,9.6s4.3,9.6,9.6,9.6C136.2,206.1,140.6,201.8,140.6,196.5L140.6,196.5z M140.6,196.5"/>
<path fill="#F3F3F3" stroke="#F8F3EC" stroke-width="4" stroke-miterlimit="10" d="M12.7,279.8c-4.8,2.2-7,7.9-4.7,12.7
	c1.6,3.5,5.1,5.6,8.7,5.6c1.4,0,2.7-0.3,4-0.9c4.8-2.2,7-7.9,4.7-12.7C23.3,279.7,17.5,277.5,12.7,279.8L12.7,279.8z M12.7,279.8"/>
<path fill="#F3F3F3" stroke="#F8F3EC" stroke-width="4" stroke-miterlimit="10" d="M276,184.6c-5.1,1.5-8,6.9-6.5,12
	c1.3,4.2,5,6.8,9.2,6.8c0.9,0,1.8-0.2,2.8-0.4c5.1-1.5,7.9-6.9,6.4-12C286.4,185.9,281.1,183.1,276,184.6L276,184.6z M276,184.6"/>
<path fill="#F3F3F3" stroke="#F8F3EC" stroke-width="4" stroke-miterlimit="10" d="M315.6,166.6c-4-3.4-10.1-3-13.5,1
	c-3.4,4-3,10.1,1,13.5c1.8,1.5,4.1,2.3,6.2,2.3c2.7,0,5.4-1.1,7.3-3.4C320.1,176.1,319.6,170,315.6,166.6L315.6,166.6z M315.6,166.6
	"/>
<path fill="#F3F3F3" stroke="#F8F3EC" stroke-width="4" stroke-miterlimit="10" d="M177.6,196.5c0-5.3-4.3-9.6-9.6-9.6
	c-5.3,0-9.6,4.3-9.6,9.6s4.3,9.6,9.6,9.6C173.3,206.1,177.6,201.8,177.6,196.5L177.6,196.5z M177.6,196.5"/>
<path fill="#F3F3F3" stroke="#F8F3EC" stroke-width="4" stroke-miterlimit="10" d="M303.2,82.1c2.9-4.5,1.6-10.4-2.9-13.3
	c-4.5-2.9-10.4-1.6-13.3,2.9c-2.9,4.5-1.6,10.4,2.9,13.3c1.6,1,3.4,1.5,5.2,1.5C298.2,86.5,301.4,85,303.2,82.1L303.2,82.1z
	 M303.2,82.1"/>
<path fill="#F3F3F3" stroke="#F8F3EC" stroke-width="4" stroke-miterlimit="10" d="M242,186.9c-5.3,0-9.6,4.3-9.6,9.6
	s4.3,9.6,9.6,9.6c5.3,0,9.6-4.3,9.6-9.6S247.3,186.9,242,186.9L242,186.9z M242,186.9"/>
<path fill="#F3F3F3" stroke="#F8F3EC" stroke-width="4" stroke-miterlimit="10" d="M214.6,196.5c0-5.3-4.3-9.6-9.6-9.6
	c-5.3,0-9.6,4.3-9.6,9.6s4.3,9.6,9.6,9.6C210.2,206.1,214.6,201.8,214.6,196.5L214.6,196.5z M214.6,196.5"/>
<path fill="#F3F3F3" stroke="#F8F3EC" stroke-width="4" stroke-miterlimit="10" d="M325.7,131.1c-5.3-0.7-10.1,3-10.8,8.2
	c-0.7,5.3,3,10.1,8.2,10.8c0.5,0.1,0.9,0.1,1.4,0.1c4.7,0,8.8-3.4,9.5-8.3C334.6,136.7,331,131.8,325.7,131.1L325.7,131.1z
	 M325.7,131.1"/>
<path fill="#F3F3F3" stroke="#F8F3EC" stroke-width="4" stroke-miterlimit="10" d="M260.1,57.1H113.7l38.6-38.6
	c3.8-3.8,3.8-9.8,0-13.6c-3.8-3.8-9.8-3.8-13.6,0l-55,55c-3.8,3.8-3.8,9.8,0,13.6l55,55c1.8,1.8,4.3,2.8,6.8,2.8
	c2.5,0,4.9-1,6.8-2.8c3.8-3.8,3.8-9.8,0-13.6l-38.6-38.6H260c5.3,0,9.6-4.3,9.6-9.6C269.6,61.4,265.4,57.1,260.1,57.1L260.1,57.1z
	 M260.1,57.1"/>
<path fill="#F3F3F3" stroke="#F8F3EC" stroke-width="4" stroke-miterlimit="10" d="M186,264.6c-3.8-3.8-9.8-3.8-13.6,0
	c-3.8,3.8-3.8,9.8,0,13.6l38.6,38.6H75.8c-5.3,0-9.6,4.3-9.6,9.6c0,5.3,4.3,9.6,9.6,9.6h135.3l-38.6,38.6c-3.8,3.8-3.8,9.8,0,13.6
	c1.8,1.8,4.3,2.8,6.8,2.8c2.5,0,4.9-1,6.8-2.8l55-55c3.8-3.8,3.8-9.8,0-13.6L186,264.6z M186,264.6"/>
</svg>
