<?xml version="1.0" encoding="utf-8"?>
<!-- Generator: Adobe Illustrator 17.1.0, SVG Export Plug-In . SVG Version: 6.00 Build 0)  -->
<!DOCTYPE svg PUBLIC "-//W3C//DTD SVG 1.1//EN" "http://www.w3.org/Graphics/SVG/1.1/DTD/svg11.dtd">
<svg version="1.1" id="Layer_1" xmlns="http://www.w3.org/2000/svg" xmlns:xlink="http://www.w3.org/1999/xlink" x="0px" y="0px"
	 viewBox="-52 157.1 518 489.8" enable-background="new -52 157.1 518 489.8" xml:space="preserve">
<path fill="#F7F3EC" stroke="#F7F3EC" stroke-width="6" stroke-miterlimit="10" d="M165.7,553.8c-24.8,0-45,20.2-45,45
	c0,24.8,20.2,45,45,45s45-20.2,45-45C210.7,574,190.5,553.8,165.7,553.8z M165.7,618.7c-11,0-19.9-8.9-19.9-19.9
	c0-11,8.9-19.9,19.9-19.9c11,0,19.9,8.9,19.9,19.9C185.6,609.8,176.7,618.7,165.7,618.7z"/>
<path fill="#F7F3EC" stroke="#F7F3EC" stroke-width="6" stroke-miterlimit="10" d="M323.6,553.8c-24.8,0-45,20.2-45,45
	c0,24.8,20.2,45,45,45c24.8,0,45-20.2,45-45C368.7,574,348.5,553.8,323.6,553.8z M323.6,618.7c-11,0-19.9-8.9-19.9-19.9
	c0-11,8.9-19.9,19.9-19.9s19.9,8.9,19.9,19.9C343.5,609.8,334.6,618.7,323.6,618.7z"/>
<path fill="#F7F3EC" stroke="#F7F3EC" stroke-width="6" stroke-miterlimit="10" d="M457.3,250.7c-4.8-5.9-11.9-9.3-19.5-9.3H46.3
	l-7.9-38.4c-1.7-8-7.1-14.7-14.6-18l-55.2-23.9c-6.4-2.8-13.8,0.2-16.5,6.5c-2.8,6.4,0.2,13.8,6.5,16.5l55.2,24l60.8,305.3
	c2.4,11.6,12.8,20.1,24.6,20.1h301.2c6.9,0,12.6-5.6,12.6-12.6c0-6.9-5.6-12.6-12.6-12.6H99.2l-7.4-45.9h310.9
	c11.9,0,22.2-8.4,24.6-20.1l35.2-170.7C464,264.3,462.1,256.6,457.3,250.7z M402.7,437.3H86.6L51.5,266.6l386.4,0L402.7,437.3z"/>
</svg>
