<svg xmlns="http://www.w3.org/2000/svg" xmlns:xlink="http://www.w3.org/1999/xlink" viewBox="0 0 40.8 44"><defs><path id="a" d="M0 0h40.8v44H0z"/></defs><clipPath id="b"><use xlink:href="#a" overflow="visible"/></clipPath><path fill="#fff" clip-path="url(#b)" d="M40.5.2c-.1-.2-.4-.2-.6-.2L15.1 3.2c-.4.1-.7.4-.7.8v28.5c-1.5-1.8-3.8-2.9-6.4-2.9-4.4 0-8 3.2-8 7.2S3.6 44 8 44s8-3.2 8-7.2v-.6-23.3l23.2-3v14.6c-1.5-1.8-3.8-2.9-6.4-2.9-4.4 0-8 3.2-8 7.2s3.6 7.2 8 7.2 7.9-3.2 8-7.1V.8c0-.2-.1-.4-.3-.6"/></svg>